<?xml version="1.0" encoding="utf-8"?>
<!-- Generator: Adobe Illustrator 25.0.1, SVG Export Plug-In . SVG Version: 6.00 Build 0)  -->
<svg version="1.1" id="Calque_1" xmlns="http://www.w3.org/2000/svg" xmlns:xlink="http://www.w3.org/1999/xlink" x="0px" y="0px"
	 viewBox="0 0 200 250" style="enable-background:new 0 0 200 250;" xml:space="preserve">
<style type="text/css">
	.st0{fill:#ED6E46;}
	.st1{fill:none;stroke:#ED6E46;stroke-width:3.0109;stroke-miterlimit:10;}
	.st2{fill:none;stroke:#ED6E46;stroke-width:3.0955;stroke-miterlimit:10;}
	.st3{fill:none;stroke:#ED6E46;stroke-width:3;stroke-miterlimit:10;}
	.st4{fill:none;stroke:#ED6E46;stroke-width:3.0843;stroke-miterlimit:10;}
</style>
<polygon points="150.97,219.2 150.97,176.96 196.13,182.98 "/>
<g>
	<path d="M112.84,51.55c-1.9-5.2-14.26-36.51-42.37-30.3c-28.11,6.21-34.22,19.66-37.43,28.27c-1.62,4.35-2.09,8.44,0.63,20.67
		c3.45,22.64,4.18,30.62,4.18,30.62l10.3-0.71c-4.34-6.59-3.98-10.43-4.34-13.05c-0.07-0.51-0.2-1.08-0.36-1.67
		c0.32,0.48,0.76,0.93,1.27,1.21c1.2,0.64,2.28,0.55,3.26,0.51l0.07,0c1.63-0.23,3.27-0.46,4.9-0.83c-1-0.2-2-0.35-2.99-0.48
		c0.45-0.6,0.63-1.54,0.31-2.74c-0.27-0.98-0.75-1.8-1.29-2.33c0.52,0.19,1.04,0.48,1.56,0.86c1.36,0.97,2.56,2.37,3.74,3.87
		c-0.24-1.91-0.97-3.77-2.27-5.39c-0.65-0.8-1.51-1.53-2.57-2.01c-0.53-0.23-1.11-0.4-1.7-0.48c-0.6-0.06-1.2-0.06-1.79,0.03
		c-0.56,0.1-1.13,0.21-1.76,0.54c-0.61,0.3-1.35,0.91-1.66,1.75c-0.21,0.51-0.26,0.98-0.25,1.4c-0.47-1.67-0.9-3.53-1.09-5.59
		c-0.43-4.63,0.21-13.19,2.64-20.6c7.19,1.95,23.24,6.65,34.79,13.92c2.51,2.78,5.03,6.11,6.35,9.44c3.23,8.13,4.7,16.85,4.7,16.85
		l28.24-3.37C117.91,91.96,121.09,74.1,112.84,51.55z M45.43,81.11c0.02-0.03,0.03-0.07,0.23-0.2c0.19-0.11,0.52-0.24,0.87-0.33
		c0.06-0.02,0.13-0.03,0.19-0.04c-0.7,0.68-1.18,2.13-0.53,4.15c-0.03-0.03-0.08-0.06-0.11-0.09c-0.18-0.19-0.26-0.37-0.36-0.65
		c-0.09-0.27-0.15-0.64-0.22-1.04c-0.06-0.39-0.11-0.88-0.13-1.21C45.36,81.37,45.4,81.14,45.43,81.11z"/>
	<path d="M83.19,77.19l-0.17-0.11c-0.12-0.07-0.17-0.09-0.25-0.14c-0.14-0.07-0.26-0.12-0.38-0.16c-0.23-0.09-0.45-0.17-0.66-0.24
		c-0.43-0.14-0.84-0.25-1.26-0.36c-0.83-0.21-1.67-0.38-2.52-0.51c-0.85-0.13-1.72-0.21-2.63-0.21c-0.9,0-1.84,0.06-2.88,0.39
		c-0.58,0.18-0.95,0.45-1.35,0.69c-0.38,0.26-0.77,0.53-1.1,0.84c-0.69,0.59-1.27,1.28-1.77,2c-0.96,1.46-1.65,3.05-1.85,4.75
		c1.17-1.22,2.28-2.34,3.48-3.28c0.58-0.48,1.18-0.91,1.79-1.27c0.3-0.19,0.62-0.33,0.91-0.5c0.06-0.03,0.12-0.05,0.18-0.08
		c-1.09,0.71-1.65,2.06-1.29,3.38c0.21,0.76,0.29,1.27,0.62,1.53c-0.56,0.11-1.13,0.22-1.69,0.35c1.24,0.14,2.47,0.23,3.72,0.31
		c1.26,0.03,2.41,0.22,3.88,0.06c1.39-0.14,2.83-0.79,3.91-1.88c1.08-1.1,1.77-2.49,2.02-4.01l0.12-0.73l-0.49-0.54
		C83.43,77.38,83.31,77.27,83.19,77.19z M77.86,82.5c-0.06-0.43-0.21-0.99-0.46-1.75c-0.39-1.15-1.32-1.98-2.41-2.2
		c0.79,0,1.66,0.08,2.49,0.21c0.74,0.12,1.48,0.27,2.21,0.46c0.27,0.07,0.53,0.15,0.8,0.23c-0.18,0.5-0.42,0.99-0.74,1.41
		C79.28,81.52,78.64,82.06,77.86,82.5z"/>
	<path d="M55.41,94.67c0.18-0.51,0.32-1.03,0.41-1.57c0.08-0.5,0.13-1.02,0.12-1.56c-0.04-0.54-0.06-1.11-0.32-1.67
		c-0.48,0.37-0.85,0.7-1.24,1.06c-0.37,0.35-0.7,0.72-1,1.1c-0.61,0.75-1.11,1.57-1.51,2.41l-0.62,1.32l1.17,0.8
		c0.71,0.49,1.49,0.88,2.34,1.16c0.43,0.13,0.87,0.25,1.35,0.31c0.49,0.04,0.97,0.12,1.54,0.01c-0.38-1-0.85-1.79-1.41-2.48
		C55.98,95.23,55.7,94.94,55.41,94.67z"/>
</g>
<g>
	<path d="M142.59,96.19L15.96,110.75l11.11,70.72l116.58,37.76L142.59,96.19z M51.29,159.82c0,4.31-0.98,7.64-2.91,9.9
		c-1.96,2.3-4.91,3.47-8.75,3.47c-1.55,0-3.04-0.15-4.44-0.46l-0.67-0.14v-8.08l1,0.19c0.45,0.08,0.93,0.18,1.43,0.28
		c0.44,0.09,0.93,0.14,1.45,0.14c1.08,0,1.81-0.29,2.23-0.87c0.33-0.46,0.72-1.48,0.72-3.71v-28.99h9.94V159.82z M75.03,163.63
		l-1.5-5.7h-8.58l-1.54,5.7H52.58l10.47-32.22h12.19l10.6,32.22H75.03z M123.43,163.63h-9.24v-14.18c0-0.62,0.01-1.31,0.02-2.05
		l-4.55,16.23h-9.1l-4.52-15.93c0.02,0.69,0.03,1.31,0.03,1.87v14.05h-8.97v-32.1h12.42l5.79,19.7l5.68-19.7h12.44V163.63z"/>
	<path d="M69.24,141.26c-0.01-0.02-0.01-0.04-0.02-0.07c-0.36,1.55-1.07,4.35-2.12,8.32h4.28l-1.03-3.94
		C70.05,144.47,69.67,143.03,69.24,141.26z"/>
</g>
<g>
	<path class="st0" d="M49.35,93.25c-1.12,0-2.36-0.11-3.71-0.32l0,0c-6.57-1.04-7.46-8.88-7.94-13.09l-0.08-0.66
		c-0.37-3.13,0.37-5.64,2.15-7.24c2.01-1.82,5.13-2.29,9.24-1.38c7.42,1.64,8.23,5.82,8.94,12.5c0.39,3.71-0.31,6.35-2.14,8.08
		C54.34,92.55,52.2,93.25,49.35,93.25z M46.11,89.96c3.75,0.6,6.32,0.26,7.64-0.99c1.09-1.04,1.5-2.92,1.22-5.59
		c-0.69-6.52-1.35-8.72-6.6-9.88c-3.07-0.68-5.35-0.45-6.58,0.67c-1.29,1.17-1.36,3.18-1.18,4.67l0.08,0.67
		C41.25,84.45,42.13,89.33,46.11,89.96L46.11,89.96z"/>
</g>
<g>
	<path class="st0" d="M72.07,92.84c-5.06,0-9.92-1.33-10.81-8.72c-0.97-8.06,0.54-13.39,11.08-15.09
		c7.15-1.15,11.41-0.71,14.22,1.49c2.16,1.68,3.38,4.38,3.72,8.25c0.38,4.39-0.35,7.62-2.26,9.87c-2.79,3.29-7.41,3.65-11.49,3.97
		C75.1,92.73,73.58,92.84,72.07,92.84z M78.92,71.51c-1.69,0-3.7,0.19-6.09,0.58c-8.37,1.35-9.36,4.55-8.5,11.67
		c0.76,6.32,5.04,6.31,11.97,5.78c3.64-0.28,7.41-0.57,9.37-2.89c1.35-1.59,1.85-4.08,1.54-7.61c-0.26-2.97-1.09-4.96-2.54-6.09
		C83.42,71.99,81.57,71.51,78.92,71.51z"/>
</g>
<g>
	<rect x="56.7" y="82.89" transform="matrix(0.9994 -0.0358 0.0358 0.9994 -2.9832 2.2024)" class="st0" width="6.59" height="3"/>
</g>
</svg>
